<?xml version="1.0" standalone="no"?>
<!DOCTYPE svg PUBLIC "-//W3C//DTD SVG 20010904//EN"
 "http://www.w3.org/TR/2001/REC-SVG-20010904/DTD/svg10.dtd">
<svg version="1.0" xmlns="http://www.w3.org/2000/svg"
 width="1151.000000pt" height="475.000000pt" viewBox="0 0 1151.000000 475.000000"
 preserveAspectRatio="xMidYMid meet">

<g transform="translate(0.000000,475.000000) scale(0.100000,-0.100000)"
fill="#000000" stroke="none">
<path d="M6660 4259 l0 -70 46 3 c54 3 77 26 58 56 -8 12 -8 22 -1 34 17 27
-9 48 -59 48 l-44 0 0 -71z m85 31 c0 -10 -12 -16 -32 -18 -28 -3 -33 0 -33
18 0 18 5 21 33 18 20 -2 32 -8 32 -18z m0 -60 c0 -10 -12 -16 -32 -18 -28 -3
-33 0 -33 18 0 18 5 21 33 18 20 -2 32 -8 32 -18z"/>
<path d="M3153 4270 l-51 -15 54 -16 c44 -14 54 -14 54 -3 0 12 273 14 1713
17 l1712 2 -1712 3 c-1395 2 -1712 4 -1715 15 -2 10 -13 10 -55 -3z"/>
<path d="M10220 4275 c0 -13 -200 -15 -1712 -18 l-1713 -2 1713 -3 c1491 -2
1712 -4 1712 -17 0 -12 5 -12 41 0 65 23 68 22 72 -47 3 -52 3 -48 4 22 0 47
-1 77 -4 68 -5 -22 -9 -22 -63 -3 -52 18 -50 18 -50 0z"/>
<path d="M3035 4038 c-48 -48 -2106 -2155 -2802 -2869 l-104 -107 3 -98 3 -99
5095 -5 5095 -5 3 -177 2 -178 -5102 -2 c-2807 -2 -4429 -4 -3606 -5 l1497 -3
3 -68 3 -67 70 0 70 0 3 68 3 67 3459 0 3459 0 3 -67 3 -68 70 0 70 0 3 68 3
67 316 0 c174 0 314 2 311 5 -3 3 -144 7 -314 8 l-309 2 -3 1788 -2 1787 315
0 c203 0 315 4 315 10 0 7 -1319 10 -3936 10 l-3936 0 -63 -62z m7295 -1513
l0 -1555 -5090 0 -5090 0 0 49 0 48 1406 1439 c773 791 1436 1469 1473 1507
l69 67 3616 0 3616 0 0 -1555z m0 -1610 l0 -45 -5090 0 -5090 0 0 45 0 45
5090 0 5090 0 0 -45z m-7070 -485 l0 -60 -60 0 -60 0 0 60 0 60 60 0 60 0 0
-60z m7070 0 l0 -60 -59 0 c-66 0 -68 2 -69 78 l-1 42 65 0 64 0 0 -60z"/>
<path d="M3197 3993 c-4 -3 -7 -665 -7 -1470 l0 -1463 1738 2 1737 3 0 1465 0
1465 -1731 3 c-952 1 -1734 -1 -1737 -5z m3463 -1468 l0 -1455 -1725 0 -1725
0 0 1455 0 1455 1725 0 1725 0 0 -1455z"/>
<path d="M3928 3920 l-16 -50 35 0 c32 0 35 2 29 25 -8 32 -25 75 -29 75 -2 0
-10 -22 -19 -50z"/>
<path d="M4850 3220 l0 -70 50 0 c28 0 50 5 50 10 0 6 -18 10 -40 10 -36 0
-40 3 -40 25 0 22 4 25 35 25 19 0 35 5 35 10 0 6 -16 10 -35 10 -24 0 -35 5
-35 15 0 11 11 15 40 15 22 0 40 5 40 10 0 6 -22 10 -50 10 l-50 0 0 -70z"/>
<path d="M3265 3240 l-50 -18 28 -11 c15 -6 39 -14 52 -17 23 -6 25 -3 25 30
0 20 -1 36 -2 35 -2 0 -25 -9 -53 -19z"/>
<path d="M6550 3223 c0 -37 2 -38 74 -9 l28 11 -51 17 -51 16 0 -35z"/>
<path d="M3900 2540 l0 -70 38 0 c72 0 107 73 59 118 -15 14 -36 22 -60 22
l-37 0 0 -70z m88 38 c7 -7 12 -24 12 -38 0 -34 -17 -50 -52 -50 -27 0 -28 2
-28 50 0 48 1 50 28 50 15 0 33 -5 40 -12z"/>
<path d="M3938 1182 c-10 -2 -18 -6 -18 -9 0 -16 24 -83 30 -83 6 0 30 67 30
83 0 8 -24 14 -42 9z"/>
<path d="M6765 3988 c-3 -7 -4 -668 -3 -1468 l3 -1455 1735 0 1735 0 0 1465 0
1465 -1733 3 c-1381 2 -1734 0 -1737 -10z m3462 -1460 l-2 -1453 -1725 0
-1725 0 -2 1453 -3 1452 1730 0 1730 0 -3 -1452z"/>
<path d="M8420 3220 l0 -70 50 0 c28 0 50 5 50 10 0 6 -18 10 -40 10 -36 0
-40 3 -40 25 0 22 4 25 35 25 19 0 35 5 35 10 0 6 -16 10 -35 10 -24 0 -35 5
-35 15 0 11 11 15 40 15 22 0 40 5 40 10 0 6 -22 10 -50 10 l-50 0 0 -70z"/>
<path d="M6820 3235 l-35 -13 25 -10 c58 -22 67 -23 72 -5 11 43 -4 50 -62 28z"/>
<path d="M10117 3238 c-2 -7 -2 -21 1 -31 5 -18 14 -17 72 5 l25 10 -35 13
c-45 17 -57 18 -63 3z"/>
<path d="M1690 2515 c-773 -790 -1406 -1441 -1408 -1446 -2 -5 288 -9 705 -8
l708 0 703 719 702 719 -2 727 -3 727 -1405 -1438z m1399 698 l0 -708 -702
-717 -702 -718 -688 0 c-451 0 -688 3 -685 10 3 11 2767 2840 2774 2840 2 0 4
-318 3 -707z"/>
<path d="M2465 1724 c-346 -355 -631 -650 -633 -655 -2 -5 250 -9 632 -9 l636
0 0 655 c0 360 -1 655 -2 655 -2 0 -286 -291 -633 -646z m625 -19 l0 -635
-616 0 c-406 0 -615 3 -612 10 3 9 1220 1260 1226 1260 1 0 2 -286 2 -635z"/>
<path d="M10628 4020 l-16 -50 35 0 c32 0 35 2 29 25 -8 32 -25 75 -29 75 -2
0 -10 -22 -19 -50z"/>
<path d="M10908 4020 l-16 -50 35 0 c32 0 35 2 29 25 -8 32 -25 75 -29 75 -2
0 -10 -22 -19 -50z"/>
<path d="M10612 2527 c-12 -13 -22 -35 -22 -48 0 -30 38 -69 66 -69 21 0 44
18 44 34 0 6 -5 5 -12 -2 -7 -7 -21 -12 -33 -12 -28 0 -45 19 -45 50 0 31 17
50 45 50 12 0 26 -5 33 -12 7 -7 12 -8 12 -2 0 37 -57 44 -88 11z"/>
<path d="M10880 2300 c0 -33 4 -60 10 -60 6 0 10 14 10 30 0 28 3 30 35 30 32
0 35 -2 35 -30 0 -16 5 -30 10 -30 6 0 10 27 10 60 0 33 -4 60 -10 60 -5 0
-10 -9 -10 -20 0 -16 -7 -20 -35 -20 -28 0 -35 4 -35 20 0 11 -4 20 -10 20 -6
0 -10 -27 -10 -60z"/>
<path d="M10620 974 c0 -17 24 -84 30 -84 6 0 30 67 30 84 0 3 -13 6 -30 6
-16 0 -30 -3 -30 -6z"/>
<path d="M5223 758 c-8 -11 -43 -103 -43 -115 0 -12 20 1 25 17 4 13 15 20 30
20 15 0 26 -7 30 -20 3 -11 11 -20 17 -20 5 0 8 6 5 14 -3 8 -11 32 -18 55
-15 49 -32 67 -46 49z m27 -50 c0 -5 -7 -8 -15 -8 -17 0 -18 2 -9 25 5 13 8
14 15 3 5 -7 9 -16 9 -20z"/>
<path d="M205 720 l-50 -18 28 -11 c15 -6 39 -14 52 -17 23 -6 25 -3 25 30 0
20 -1 36 -2 35 -2 0 -25 -9 -53 -19z"/>
<path d="M10220 703 c0 -37 2 -38 74 -9 l28 11 -51 17 -51 16 0 -35z"/>
<path d="M10918 612 c-10 -2 -18 -6 -18 -9 0 -16 24 -83 30 -83 6 0 30 67 30
83 0 8 -24 14 -42 9z"/>
<path d="M6690 285 l0 -65 40 0 c22 0 40 5 40 10 0 6 -13 10 -30 10 -30 0 -30
1 -30 55 0 30 -4 55 -10 55 -6 0 -10 -28 -10 -65z"/>
<path d="M3333 297 c-47 -18 -47 -23 -2 -36 46 -14 61 -5 52 30 -6 22 -7 22
-50 6z"/>
<path d="M10080 277 l0 -36 48 16 c26 9 49 17 51 19 4 4 -38 21 -74 30 -23 6
-25 3 -25 -29z"/>
</g>
</svg>
