<?xml version="1.0" standalone="no"?>
<!DOCTYPE svg PUBLIC "-//W3C//DTD SVG 20010904//EN"
 "http://www.w3.org/TR/2001/REC-SVG-20010904/DTD/svg10.dtd">
<svg version="1.0" xmlns="http://www.w3.org/2000/svg"
 width="1280.000000pt" height="640.000000pt" viewBox="0 0 1280.000000 640.000000"
 preserveAspectRatio="xMidYMid meet">
<metadata>
Created by potrace 1.15, written by Peter Selinger 2001-2017
</metadata>
<g transform="translate(0.000000,640.000000) scale(0.100000,-0.100000)"
fill="#000000" stroke="none">
<path d="M6775 4933 c-465 -15 -1208 -78 -1569 -133 -234 -37 -281 -53 -643
-221 -356 -165 -480 -210 -663 -240 -69 -11 -215 -37 -325 -59 -471 -92 -1020
-174 -1440 -215 -188 -19 -603 -21 -756 -6 -485 51 -809 171 -942 351 -67 90
-101 124 -158 154 -99 55 -213 39 -259 -36 -24 -40 -25 -65 -5 -143 120 -462
721 -767 1609 -815 268 -14 524 0 909 50 664 87 991 109 1117 77 l45 -12 85
-163 c136 -259 158 -283 324 -332 280 -85 550 -176 624 -211 96 -46 199 -137
249 -221 18 -30 48 -100 67 -156 39 -116 39 -137 -9 -333 -29 -120 -31 -159
-10 -199 22 -43 64 -70 225 -147 168 -80 517 -267 673 -361 59 -35 128 -71
155 -80 96 -32 557 -15 651 24 18 8 51 14 73 14 49 0 95 19 140 58 l35 31 12
-23 c46 -84 262 -138 415 -102 142 34 303 136 466 297 123 122 197 211 448
542 148 194 209 267 223 267 12 0 52 14 90 30 80 36 78 36 259 -35 l115 -44
-141 6 c-136 6 -143 5 -196 -19 -64 -30 -102 -74 -123 -144 -19 -62 -19 -89 1
-176 30 -132 118 -182 338 -194 175 -9 353 8 461 46 108 37 465 212 552 270
89 59 107 88 111 181 4 83 -19 210 -48 269 -10 20 -41 57 -69 83 -28 26 -51
50 -51 52 0 3 16 5 35 5 58 0 186 30 242 56 30 14 71 47 98 76 38 43 50 67 81
165 20 66 42 117 50 120 9 3 32 0 52 -6 28 -9 62 -41 142 -132 58 -66 115
-129 126 -140 l22 -20 78 48 c44 27 95 59 115 71 l36 22 83 -105 c45 -58 84
-105 86 -105 3 0 46 35 96 78 l91 79 51 -28 c37 -21 65 -29 101 -29 57 0 73 8
159 88 57 52 61 54 105 50 25 -3 101 -28 168 -57 146 -62 210 -75 323 -68 96
7 247 53 352 108 91 48 186 147 233 241 33 68 37 84 32 127 -9 75 -50 145
-146 245 -66 70 -98 113 -135 186 -27 52 -62 114 -77 136 -29 42 -203 194
-337 293 -40 30 -74 63 -77 75 -2 12 -9 44 -14 71 -5 28 -19 72 -30 98 -56
129 -138 131 -302 7 l-67 -50 -83 11 c-158 19 -347 68 -649 169 -43 15 -308
33 -378 27 -37 -4 -112 -20 -167 -37 -126 -39 -216 -45 -425 -31 -342 23 -699
25 -915 6 -156 -14 -252 -16 -435 -12 -275 7 -455 26 -945 101 -464 71 -618
85 -840 79z m74 -220 c35 -132 60 -246 66 -303 l6 -55 -22 40 c-43 78 -109
300 -109 366 0 22 5 29 19 29 15 0 23 -15 40 -77z m366 53 c55 -6 99 -16 97
-21 -1 -6 -13 -41 -27 -80 -30 -86 -31 -152 -5 -256 58 -228 73 -384 68 -739
-3 -280 -3 -285 17 -288 74 -10 114 182 115 550 0 127 -6 207 -25 338 -29 203
-31 333 -6 405 13 37 23 50 37 49 10 0 136 -18 279 -40 l260 -39 1 -100 c1
-55 9 -140 18 -190 23 -128 20 -292 -9 -506 -26 -196 -34 -307 -22 -326 12
-19 36 -4 61 41 47 80 117 278 147 414 43 189 116 417 185 573 l25 56 232 1
c128 0 261 3 297 7 l65 7 -1 -154 c-2 -180 -7 -217 -74 -488 -36 -145 -53
-233 -56 -300 -6 -112 5 -141 36 -100 36 46 129 254 150 335 31 121 48 260 61
496 6 118 13 216 16 219 5 6 496 0 502 -5 2 -2 -13 -57 -32 -122 -20 -65 -47
-163 -62 -217 -51 -191 -122 -342 -325 -685 -196 -334 -215 -377 -172 -400 40
-21 122 41 177 133 40 67 41 62 20 -74 -25 -160 -18 -230 24 -230 52 0 85 91
132 370 17 102 42 223 56 270 33 114 124 351 185 480 50 106 63 167 94 424 l6
49 106 -7 c218 -14 244 -17 236 -35 -36 -81 -45 -127 -34 -163 24 -83 89 -23
144 136 l21 58 125 35 c129 36 211 42 338 27 52 -6 54 -8 48 -33 -45 -213
-114 -484 -150 -589 -51 -148 -71 -227 -81 -318 -13 -114 31 -239 85 -239 21
0 28 8 42 52 10 28 29 121 43 205 31 188 27 176 130 488 46 141 89 288 96 327
l12 71 43 -19 c55 -23 268 -82 399 -110 62 -13 140 -22 205 -23 l105 -1 85 64
85 64 17 -54 c9 -30 17 -79 17 -109 1 -45 5 -58 26 -75 l25 -20 -50 -59 c-28
-32 -49 -66 -48 -75 6 -27 69 -17 146 21 l69 36 29 -23 29 -23 -21 -29 c-33
-45 -44 -70 -38 -87 9 -23 63 -20 117 7 l46 24 54 -48 c43 -38 70 -77 123
-176 54 -100 86 -145 149 -212 99 -105 115 -127 115 -164 0 -35 -24 -82 -45
-91 -9 -3 -36 -6 -60 -6 -35 0 -51 7 -85 35 -46 39 -61 42 -80 20 -10 -12 -10
-21 -2 -40 15 -33 98 -85 136 -85 28 0 28 -1 12 -19 -9 -10 -47 -34 -84 -52
-59 -30 -76 -34 -142 -33 -95 0 -121 14 -200 104 -35 38 -71 70 -81 70 -46 0
-24 -107 37 -179 34 -39 35 -41 12 -41 -13 0 -61 16 -108 36 -185 78 -214 87
-280 88 -77 1 -124 -21 -185 -84 -69 -72 -68 -72 -194 21 -34 25 -25 29 -127
-58 -34 -29 -64 -53 -67 -53 -4 0 -138 165 -153 188 -1 2 -54 -29 -118 -68
-64 -39 -121 -70 -125 -68 -5 2 -52 51 -104 110 -91 100 -100 107 -162 128
-48 16 -78 20 -108 16 -91 -14 -132 -64 -177 -216 -12 -41 -29 -88 -37 -103
-12 -25 -66 -67 -85 -67 -5 0 -8 26 -8 57 0 87 -19 180 -46 216 -57 78 -87
155 -135 345 -27 107 -54 203 -60 214 -16 29 -42 18 -64 -27 -57 -115 4 -390
161 -722 29 -62 50 -113 46 -113 -4 0 -56 -5 -116 -10 -148 -14 -186 -37 -186
-110 0 -26 17 -49 104 -138 103 -106 103 -107 120 -181 24 -111 22 -135 -16
-164 -89 -67 -400 -221 -553 -274 -61 -21 -94 -25 -255 -30 -198 -6 -281 3
-322 37 -20 16 -23 27 -23 89 0 60 3 74 23 93 21 22 28 22 140 18 233 -10 385
-5 417 12 50 27 68 54 68 103 0 72 -35 100 -169 133 -44 11 -147 46 -229 77
-195 74 -244 79 -342 36 -39 -17 -83 -31 -97 -31 l-26 0 34 53 c78 122 143
392 181 757 17 162 34 274 50 330 47 166 60 305 29 317 -22 8 -47 -21 -88
-103 -68 -137 -104 -299 -131 -594 -21 -230 -63 -377 -184 -645 -44 -99 -51
-110 -73 -107 -19 3 -166 59 -177 68 -2 2 9 18 24 36 66 78 122 250 165 507
12 68 32 175 45 237 27 122 23 164 -13 164 -71 0 -222 -237 -271 -425 -12 -44
-33 -168 -48 -275 -14 -107 -28 -197 -29 -198 -1 -2 -47 7 -102 20 l-101 23 7
30 c11 49 8 173 -7 282 -18 129 -11 229 30 458 41 230 45 367 12 438 -18 38
-27 47 -47 47 -16 0 -31 -9 -41 -24 -25 -37 -63 -226 -85 -421 -12 -99 -33
-256 -46 -350 -24 -162 -33 -351 -19 -395 3 -11 5 -20 3 -20 -2 0 -67 14 -144
30 -318 70 -653 169 -761 227 -37 19 -108 53 -158 75 -89 39 -90 40 -122 23
-17 -10 -37 -30 -43 -46 -7 -16 -18 -33 -26 -40 -11 -9 -16 -6 -24 15 -25 68
-67 139 -136 236 -125 174 -151 243 -184 478 -59 421 -76 486 -144 557 -77 80
-124 52 -112 -66 3 -32 23 -140 45 -240 22 -101 44 -221 50 -265 16 -129 81
-295 184 -474 27 -47 67 -121 89 -165 22 -44 58 -104 80 -133 l39 -53 -100
-104 c-114 -119 -140 -163 -169 -289 -12 -48 -23 -90 -26 -93 -7 -7 -31 44
-55 116 -39 118 -52 224 -55 424 -4 225 -12 266 -141 647 -130 384 -155 461
-186 585 -32 126 -61 284 -54 295 2 4 35 10 72 14 266 26 583 56 609 56 l31 0
12 -92 c7 -51 28 -157 47 -236 46 -191 210 -667 268 -779 81 -156 222 -363
248 -363 15 0 8 67 -13 136 -12 38 -57 143 -100 235 -86 182 -102 225 -218
617 -69 232 -81 282 -88 379 l-8 112 30 5 c16 3 98 8 181 12 l151 6 7 -51 c10
-73 55 -197 152 -412 139 -312 129 -261 130 -644 1 -335 4 -377 41 -450 20
-40 52 -74 85 -91 59 -31 72 40 43 241 -8 55 -15 165 -15 245 0 80 -9 233 -20
340 -11 107 -20 263 -20 345 0 152 -17 307 -45 414 -8 32 -15 61 -15 63 0 6
84 -1 215 -16z m-1989 -154 c1 -21 9 -59 18 -86 42 -124 72 -304 111 -676 35
-329 78 -558 120 -640 19 -37 73 -82 94 -78 24 5 17 190 -14 369 -24 139 -57
342 -69 423 -11 80 13 15 72 -194 81 -286 91 -332 103 -485 29 -388 41 -454
102 -570 31 -58 93 -130 130 -150 17 -9 18 -16 8 -69 -6 -33 -11 -91 -11 -130
l0 -70 63 -61 c70 -68 252 -207 312 -237 24 -13 91 -28 175 -39 164 -23 229
-41 269 -75 41 -34 48 -79 23 -136 -19 -43 -22 -45 -70 -51 -28 -3 -63 -13
-76 -23 -21 -13 -62 -17 -215 -22 -214 -6 -255 1 -336 53 -140 89 -573 320
-808 430 -32 15 -61 34 -64 42 -3 9 6 68 21 132 44 185 45 239 6 357 -41 126
-98 235 -154 300 l-45 51 79 162 c44 89 89 192 100 229 40 124 26 283 -32 365
-44 62 -66 27 -78 -131 -6 -64 -12 -132 -16 -150 -7 -44 -65 -177 -125 -289
l-50 -93 -77 39 c-42 21 -116 51 -164 67 -49 15 -88 31 -88 34 0 3 24 16 52
30 122 58 235 216 337 470 94 235 143 482 145 728 1 114 -2 144 -13 152 -56
34 -109 -116 -161 -457 -17 -111 -41 -237 -54 -281 -64 -212 -178 -406 -296
-500 -30 -24 -63 -50 -72 -58 -10 -7 -18 -24 -18 -37 l0 -24 -177 53 c-98 30
-195 61 -216 71 -43 19 -69 58 -172 261 -99 197 -121 214 -293 231 -45 5 -86
11 -90 15 -4 4 -7 57 -7 117 0 95 2 111 20 128 20 19 149 47 420 91 141 23
299 75 498 164 78 35 143 61 145 57 6 -16 -105 -275 -214 -503 -63 -131 -114
-247 -114 -257 0 -90 124 72 281 367 94 177 141 288 169 396 l17 71 104 47
c148 66 277 104 364 107 28 1 30 -2 31 -37z m3050 -6 c-2 -6 -17 -57 -33 -113
-15 -57 -30 -103 -33 -103 -6 0 -2 209 4 226 3 6 18 9 36 6 17 -2 29 -9 26
-16z m-7749 -465 c27 -15 78 -41 116 -57 37 -16 65 -33 63 -39 -3 -5 -13 -35
-22 -65 -10 -30 -19 -57 -20 -59 -10 -13 -293 162 -294 181 0 11 81 68 96 68
8 0 35 -13 61 -29z m2753 -181 c0 -81 -3 -110 -12 -110 -7 0 -78 -7 -158 -14
-80 -8 -146 -13 -148 -11 -5 5 -16 195 -11 196 2 0 63 11 134 23 72 13 145 24
163 25 l32 1 0 -110z m-2337 24 l28 -6 -33 -24 c-45 -34 -58 -31 -58 12 0 29
3 34 18 30 9 -3 30 -8 45 -12z m1727 -94 c0 -49 1 -93 3 -97 1 -5 -76 -18
-172 -31 -142 -19 -176 -21 -183 -10 -8 12 -5 174 3 183 4 3 288 42 327 44 21
1 22 -2 22 -89z m-1395 35 c65 -8 142 -15 170 -15 l50 0 -3 -87 c-2 -49 -7
-91 -10 -94 -12 -10 -337 36 -362 51 -9 6 -9 21 0 66 15 78 20 94 28 94 4 0
61 -7 127 -15z m815 -62 c0 -27 7 -69 14 -94 l14 -46 -51 -7 c-29 -3 -125 -6
-213 -6 l-161 0 -7 69 c-4 38 -4 80 0 95 l6 25 132 4 c72 1 161 4 199 5 l67 2
0 -47z m6081 -650 c-25 -101 -32 -125 -37 -120 -3 2 5 43 17 91 12 48 24 84
27 82 2 -3 -1 -27 -7 -53z m-1583 -132 c148 -74 473 -176 785 -245 27 -6 28
-8 22 -54 -4 -26 -29 -113 -56 -193 -57 -172 -72 -232 -94 -394 -10 -66 -21
-127 -26 -136 -5 -9 -30 -22 -56 -28 -35 -9 -60 -25 -97 -64 l-51 -52 -55 55
c-72 72 -139 98 -354 136 -96 16 -100 18 -175 78 -41 33 -108 92 -148 129 -68
65 -71 70 -66 105 9 62 62 269 93 361 27 82 148 361 156 361 3 0 57 -27 122
-59z m-449 -361 c-68 -240 -83 -353 -54 -409 8 -16 47 -59 87 -97 84 -78 78
-75 -49 25 -51 40 -93 80 -93 89 0 87 76 419 107 465 13 22 26 37 28 35 2 -2
-10 -50 -26 -108z m1583 40 c196 -46 354 -92 413 -123 47 -24 129 -47 168 -47
29 0 35 -11 15 -27 -41 -31 -367 -43 -458 -17 -67 20 -112 23 -117 8 -7 -22
49 -73 113 -105 61 -30 74 -33 204 -38 l139 -6 -135 -175 c-235 -306 -414
-478 -583 -563 -83 -41 -86 -42 -190 -42 -86 0 -114 4 -146 20 -48 24 -54 49
-31 129 20 69 63 114 118 123 50 8 101 50 122 102 8 22 25 104 36 183 24 169
27 180 90 368 27 80 52 169 56 198 4 28 8 52 10 52 2 0 81 -18 176 -40z"/>
<path d="M10382 4413 c-19 -8 -47 -70 -71 -161 -28 -105 -48 -158 -165 -437
-94 -221 -110 -275 -83 -275 66 0 357 560 387 744 15 96 -14 151 -68 129z"/>
<path d="M11244 4313 c-48 -61 -74 -110 -74 -141 0 -11 -17 -30 -40 -46 -46
-31 -53 -65 -17 -89 l22 -15 -38 -40 c-43 -44 -45 -70 -9 -88 35 -17 36 -21
13 -50 -30 -38 -27 -61 12 -80 17 -9 34 -18 36 -20 2 -2 -11 -20 -28 -40 -18
-20 -31 -43 -29 -52 4 -21 121 -84 141 -76 26 10 28 34 4 58 -13 13 -29 25
-37 28 -10 3 -5 15 18 44 37 46 35 67 -9 90 -35 17 -35 17 -8 53 25 34 22 62
-9 76 -28 13 -28 16 8 50 35 34 37 48 9 76 -21 21 -21 21 -1 39 10 10 25 39
31 65 7 28 31 72 56 106 47 60 56 93 29 103 -27 11 -33 7 -80 -51z"/>
<path d="M11755 4086 c-131 -58 -168 -244 -88 -445 45 -113 109 -183 126 -138
6 15 -5 85 -27 180 -27 117 -22 159 28 246 52 88 62 121 46 150 -12 24 -41 26
-85 7z"/>
<path d="M12108 4009 c-27 -15 -22 -46 10 -63 15 -8 21 -15 15 -16 -20 0 -15
-25 10 -47 28 -26 50 -33 67 -23 19 12 -2 58 -32 70 -18 7 -19 9 -5 9 28 1 57
-36 57 -72 0 -38 28 -71 53 -61 23 8 27 29 18 79 -10 51 -32 89 -64 109 -29
18 -108 27 -129 15z"/>
<path d="M9130 2955 c-31 -38 39 -115 208 -230 96 -64 135 -78 160 -53 19 19
14 55 -15 114 -38 78 -84 115 -187 152 -95 35 -147 40 -166 17z"/>
</g>
</svg>
