<?xml version="1.0" encoding="UTF-8"?>
<!DOCTYPE svg PUBLIC "-//W3C//DTD SVG 1.1//EN" "http://www.w3.org/Graphics/SVG/1.1/DTD/svg11.dtd">
<svg xmlns="http://www.w3.org/2000/svg" version="1.1" width="1731px" height="1413px" style="shape-rendering:geometricPrecision; text-rendering:geometricPrecision; image-rendering:optimizeQuality; fill-rule:evenodd; clip-rule:evenodd" xmlns:xlink="http://www.w3.org/1999/xlink">
<g><path style="opacity:1" fill="#fefefe" d="M -0.5,-0.5 C 576.5,-0.5 1153.5,-0.5 1730.5,-0.5C 1730.5,470.5 1730.5,941.5 1730.5,1412.5C 1153.5,1412.5 576.5,1412.5 -0.5,1412.5C -0.5,941.5 -0.5,470.5 -0.5,-0.5 Z"/></g>
<g><path style="opacity:1" fill="#b2d4fa" d="M 1296.5,1335.5 C 1293.32,1305.47 1290.32,1275.47 1287.5,1245.5C 1299.17,1245.5 1310.83,1245.5 1322.5,1245.5C 1322.5,1166.5 1322.5,1087.5 1322.5,1008.5C 1269.83,1008.5 1217.17,1008.5 1164.5,1008.5C 1166.99,998.873 1169.32,989.206 1171.5,979.5C 1172.4,978.791 1172.74,977.791 1172.5,976.5C 1180.17,976.5 1187.83,976.5 1195.5,976.5C 1195.5,894.167 1195.5,811.833 1195.5,729.5C 1129.83,729.5 1064.17,729.5 998.5,729.5C 998.806,726.615 998.473,723.948 997.5,721.5C 997.245,718.984 996.411,716.65 995,714.5C 992.937,711.946 991.103,709.28 989.5,706.5C 992.825,688.881 995.825,671.215 998.5,653.5C 1013.26,652.849 1027.93,652.182 1042.5,651.5C 1045.65,641.896 1048.65,632.23 1051.5,622.5C 1054.06,622.802 1056.39,622.468 1058.5,621.5C 1134.16,619.047 1209.83,616.714 1285.5,614.5C 1280.56,461.166 1275.56,307.832 1270.5,154.5C 1153.17,157.894 1035.83,161.227 918.5,164.5C 947.973,130.411 984.973,108.578 1029.5,99C 1099.5,87.6388 1167.84,93.9722 1234.5,118C 1314.67,151.165 1368.17,208.999 1395,291.5C 1411.28,346.657 1417.61,402.99 1414,460.5C 1411.97,495.062 1407.97,529.396 1402,563.5C 1391.52,610.016 1384.19,657.016 1380,704.5C 1371.34,817.526 1404.34,916.193 1479,1000.5C 1504,1027.5 1529,1054.5 1554,1081.5C 1568.84,1099.36 1580.84,1119.03 1590,1140.5C 1603.7,1182.46 1605.03,1224.79 1594,1267.5C 1585.43,1296.16 1568.93,1318.99 1544.5,1336C 1461.83,1336.53 1379.17,1336.36 1296.5,1335.5 Z"/></g>
<g><path style="opacity:1" fill="#fec302" d="M 1058.5,621.5 C 1056.26,621.795 1054.26,621.461 1052.5,620.5C 1054.69,611.764 1057.19,603.097 1060,594.5C 1068.24,592.349 1070.91,587.349 1068,579.5C 1061.54,573.709 1055.88,574.375 1051,581.5C 1049.87,587.88 1052.37,592.214 1058.5,594.5C 1055.1,603.711 1052.1,613.045 1049.5,622.5C 986.83,624.019 924.163,625.685 861.5,627.5C 859.976,623.997 859.642,620.33 860.5,616.5C 868.277,612.123 869.277,606.623 863.5,600C 855.792,596.689 850.792,599.022 848.5,607C 848.96,612.626 851.96,615.793 857.5,616.5C 858.162,620.466 858.495,624.466 858.5,628.5C 818.834,629.472 779.167,630.472 739.5,631.5C 735.66,602.456 731.494,573.456 727,544.5C 723.142,559.932 718.976,575.266 714.5,590.5C 710.351,580.864 706.184,571.197 702,561.5C 698.01,572.133 694.01,582.8 690,593.5C 679.56,547.199 669.227,500.865 659,454.5C 648.531,485.575 637.864,516.575 627,547.5C 623.743,468.427 620.243,389.427 616.5,310.5C 614.804,264.834 613.138,219.167 611.5,173.5C 713.86,171.166 816.193,168.166 918.5,164.5C 1035.83,161.227 1153.17,157.894 1270.5,154.5C 1275.56,307.832 1280.56,461.166 1285.5,614.5C 1209.83,616.714 1134.16,619.047 1058.5,621.5 Z"/></g>
<g><path style="opacity:1" fill="#33303f" d="M 1238.5,177.5 C 1247.31,177.465 1249.64,181.298 1245.5,189C 1237.95,191.984 1234.45,189.484 1235,181.5C 1236.03,179.973 1237.2,178.64 1238.5,177.5 Z"/></g>
<g><path style="opacity:1" fill="#35313f" d="M 646.5,190.5 C 653.484,190.317 656.317,193.65 655,200.5C 652.441,203.349 649.274,204.183 645.5,203C 641.309,198.46 641.642,194.293 646.5,190.5 Z"/></g>
<g><path style="opacity:1" fill="#fffcf6" d="M 885.5,219.5 C 890.5,219.5 895.5,219.5 900.5,219.5C 900.5,221.5 900.5,223.5 900.5,225.5C 892.842,225.986 885.175,226.32 877.5,226.5C 877.5,231.167 877.5,235.833 877.5,240.5C 884.5,240.5 891.5,240.5 898.5,240.5C 898.5,242.5 898.5,244.5 898.5,246.5C 891.814,246.527 885.148,246.861 878.5,247.5C 878.54,252.193 878.873,256.859 879.5,261.5C 887.175,261.32 894.842,260.986 902.5,260.5C 902.5,262.833 902.5,265.167 902.5,267.5C 892.5,267.5 882.5,267.5 872.5,267.5C 872.295,251.83 871.961,236.163 871.5,220.5C 876.363,220.819 881.03,220.486 885.5,219.5 Z"/></g>
<g><path style="opacity:1" fill="#fffcf6" d="M 1012.5,227.5 C 1016.22,227.002 1019.55,227.836 1022.5,230C 1021.12,231.925 1019.62,233.759 1018,235.5C 1014.39,232.731 1011.06,233.064 1008,236.5C 1007.5,245.16 1007.33,253.827 1007.5,262.5C 1005.5,262.5 1003.5,262.5 1001.5,262.5C 1000.91,251.176 1000.58,239.843 1000.5,228.5C 1002.5,228.5 1004.5,228.5 1006.5,228.5C 1006.34,229.873 1006.51,231.207 1007,232.5C 1008.73,230.598 1010.56,228.931 1012.5,227.5 Z"/></g>
<g><path style="opacity:1" fill="#fffdf8" d="M 972.5,229.5 C 981.755,227.505 987.922,230.838 991,239.5C 991.861,245.585 991.527,251.585 990,257.5C 983.896,265.101 976.729,266.267 968.5,261C 966.932,258.696 965.765,256.196 965,253.5C 964.333,248.167 964.333,242.833 965,237.5C 966.353,233.65 968.853,230.983 972.5,229.5 Z"/></g>
<g><path style="opacity:1" fill="#fffdf7" d="M 949.5,230.5 C 952.187,230.336 954.854,230.503 957.5,231C 958.308,231.308 958.975,231.808 959.5,232.5C 958.533,234.63 957.366,236.63 956,238.5C 951.982,235.561 948.315,235.895 945,239.5C 944.584,248.174 944.75,256.841 945.5,265.5C 943.167,265.5 940.833,265.5 938.5,265.5C 938.66,254.146 938.326,242.813 937.5,231.5C 939.5,231.5 941.5,231.5 943.5,231.5C 943.343,232.873 943.51,234.207 944,235.5C 945.73,233.598 947.563,231.931 949.5,230.5 Z"/></g>
<g><path style="opacity:1" fill="#fffdf8" d="M 922.5,231.5 C 931.021,230.461 932.854,233.128 928,239.5C 923.585,236.45 919.918,237.117 917,241.5C 917.123,249.816 917.29,258.149 917.5,266.5C 915.5,266.5 913.5,266.5 911.5,266.5C 910.819,255.179 910.486,243.846 910.5,232.5C 912.5,232.5 914.5,232.5 916.5,232.5C 916.351,233.552 916.517,234.552 917,235.5C 918.812,234.023 920.645,232.69 922.5,231.5 Z"/></g>
<g><path style="opacity:1" fill="#ffc51a" d="M 974.5,235.5 C 979.772,234.549 983.272,236.549 985,241.5C 985.667,245.167 985.667,248.833 985,252.5C 982.928,257.143 979.428,258.643 974.5,257C 972.951,255.786 971.785,254.286 971,252.5C 970.333,248.167 970.333,243.833 971,239.5C 971.69,237.65 972.856,236.316 974.5,235.5 Z"/></g>
<g><path style="opacity:1" fill="#fffefe" d="M 934.5,302.5 C 952.094,301.316 968.427,305.149 983.5,314C 994.245,322.979 1000.75,334.479 1003,348.5C 1003.95,388.526 1003.62,428.526 1002,468.5C 994.76,493.721 977.927,507.221 951.5,509C 933.599,511.463 916.932,508.13 901.5,499C 889.08,489.668 882.247,477.168 881,461.5C 880.333,423.833 880.333,386.167 881,348.5C 884.517,327.321 896.351,313.155 916.5,306C 922.657,304.922 928.657,303.755 934.5,302.5 Z"/></g>
<g><path style="opacity:1" fill="#b1d3fa" d="M 616.5,310.5 C 620.243,389.427 623.743,468.427 627,547.5C 637.864,516.575 648.531,485.575 659,454.5C 669.227,500.865 679.56,547.199 690,593.5C 694.01,582.8 698.01,572.133 702,561.5C 706.184,571.197 710.351,580.864 714.5,590.5C 718.976,575.266 723.142,559.932 727,544.5C 731.494,573.456 735.66,602.456 739.5,631.5C 779.167,630.472 818.834,629.472 858.5,628.5C 860.638,635.799 862.305,643.299 863.5,651C 885.741,660.705 907.907,670.538 930,680.5C 934.311,688.954 938.477,697.454 942.5,706C 934.433,711.298 930.433,718.798 930.5,728.5C 930.5,728.833 930.5,729.167 930.5,729.5C 880.5,729.5 830.5,729.5 780.5,729.5C 757.167,729.5 733.833,729.5 710.5,729.5C 710.5,811.833 710.5,894.167 710.5,976.5C 722.5,976.5 734.5,976.5 746.5,976.5C 748.593,987.063 750.26,997.73 751.5,1008.5C 703.833,1008.5 656.167,1008.5 608.5,1008.5C 610.5,1005.5 612.5,1002.5 614.5,999.5C 609.695,998.513 604.695,998.179 599.5,998.5C 602.248,974.847 604.915,951.18 607.5,927.5C 608.421,930.676 609.921,933.676 612,936.5C 611.134,933.563 610.467,930.563 610,927.5C 623.187,933.494 632.02,929.494 636.5,915.5C 635.91,914.201 634.91,913.368 633.5,913C 622.924,910.298 614.757,913.465 609,922.5C 607.445,916.385 604.612,911.052 600.5,906.5C 599.089,904.086 597.089,902.419 594.5,901.5C 595.96,903.463 597.627,905.296 599.5,907C 598.263,907.232 597.263,907.732 596.5,908.5C 587.974,911.019 583.641,916.686 583.5,925.5C 567.5,925.5 551.5,925.5 535.5,925.5C 530.36,924.512 525.026,924.179 519.5,924.5C 519.5,919.833 519.5,915.167 519.5,910.5C 529.147,912.246 537.48,909.912 544.5,903.5C 546.357,893.728 545.524,884.062 542,874.5C 541.623,873.058 540.79,872.058 539.5,871.5C 544.117,881.206 545.45,891.206 543.5,901.5C 535.924,893.963 527.09,891.963 517,895.5C 516.055,895.095 515.388,894.428 515,893.5C 513.106,897.236 510.606,900.569 507.5,903.5C 510.72,906.606 514.387,908.939 518.5,910.5C 518.5,915.167 518.5,919.833 518.5,924.5C 514.167,924.5 509.833,924.5 505.5,924.5C 505.263,925.791 505.596,926.791 506.5,927.5C 510.49,951.105 514.156,974.772 517.5,998.5C 512.722,998.165 508.722,998.498 505.5,999.5C 507.526,1002.52 509.526,1005.52 511.5,1008.5C 505.31,1008.18 499.31,1008.51 493.5,1009.5C 493.5,1087.83 493.5,1166.17 493.5,1244.5C 506.656,1245.5 519.99,1245.83 533.5,1245.5C 531.352,1274.56 528.685,1303.56 525.5,1332.5C 449.166,1332.67 372.833,1332.5 296.5,1332C 292.049,1331.87 287.716,1331.2 283.5,1330C 231.078,1284.94 187.578,1232.78 153,1173.5C 133.863,1138.76 121.53,1101.76 116,1062.5C 112.784,1032.89 116.451,1004.23 127,976.5C 140.045,949.137 161.545,932.637 191.5,927C 199.464,925.45 207.464,924.117 215.5,923C 243.791,921.438 271.791,917.771 299.5,912C 330.545,902.952 352.045,883.452 364,853.5C 375.041,822.768 379.041,791.102 376,758.5C 373.584,738.761 370.584,719.094 367,699.5C 357.69,659.59 348.69,619.59 340,579.5C 315.244,471.292 350.077,389.126 444.5,333C 485.159,310 528.826,300.667 575.5,305C 589.198,306.651 602.865,308.485 616.5,310.5 Z"/></g>
<g><path style="opacity:1" fill="#fffefd" d="M 776.5,305.5 C 786.855,305.168 797.188,305.501 807.5,306.5C 783.895,354.044 760.561,401.711 737.5,449.5C 757.489,450.5 777.489,450.833 797.5,450.5C 797.5,429.833 797.5,409.167 797.5,388.5C 807.167,388.5 816.833,388.5 826.5,388.5C 826.5,409.167 826.5,429.833 826.5,450.5C 832.167,450.5 837.833,450.5 843.5,450.5C 843.5,459.167 843.5,467.833 843.5,476.5C 837.833,476.5 832.167,476.5 826.5,476.5C 826.5,486.833 826.5,497.167 826.5,507.5C 816.833,507.5 807.167,507.5 797.5,507.5C 797.5,497.167 797.5,486.833 797.5,476.5C 766.5,476.5 735.5,476.5 704.5,476.5C 704.334,467.827 704.5,459.16 705,450.5C 728.847,402.14 752.68,353.807 776.5,305.5 Z"/></g>
<g><path style="opacity:1" fill="#fffefe" d="M 1078.5,449.5 C 1098.33,450.497 1118.33,450.83 1138.5,450.5C 1138.5,429.833 1138.5,409.167 1138.5,388.5C 1148.17,388.5 1157.83,388.5 1167.5,388.5C 1167.5,409.167 1167.5,429.833 1167.5,450.5C 1172.83,450.5 1178.17,450.5 1183.5,450.5C 1183.5,459.167 1183.5,467.833 1183.5,476.5C 1178.17,476.5 1172.83,476.5 1167.5,476.5C 1167.5,486.833 1167.5,497.167 1167.5,507.5C 1157.83,507.5 1148.17,507.5 1138.5,507.5C 1138.5,497.167 1138.5,486.833 1138.5,476.5C 1107.5,476.5 1076.5,476.5 1045.5,476.5C 1045.33,467.827 1045.5,459.16 1046,450.5C 1069.71,402.256 1093.54,354.089 1117.5,306C 1127.83,305.333 1138.17,305.333 1148.5,306C 1125.02,353.783 1101.69,401.616 1078.5,449.5 Z"/></g>
<g><path style="opacity:1" fill="#ffc304" d="M 933.5,329.5 C 943.242,328.603 952.575,330.103 961.5,334C 968.265,338.687 972.099,345.187 973,353.5C 973.667,388.167 973.667,422.833 973,457.5C 971.838,470.992 964.672,479.159 951.5,482C 937.15,485.538 924.983,482.038 915,471.5C 913.209,468.007 911.876,464.341 911,460.5C 910.333,424.5 910.333,388.5 911,352.5C 913.334,339.667 920.834,332.001 933.5,329.5 Z"/></g>
<g><path style="opacity:1" fill="#ffd75a" d="M 1167.5,388.5 C 1168.5,408.66 1168.83,428.993 1168.5,449.5C 1173.69,449.179 1178.69,449.513 1183.5,450.5C 1178.17,450.5 1172.83,450.5 1167.5,450.5C 1167.5,429.833 1167.5,409.167 1167.5,388.5 Z"/></g>
<g><path style="opacity:1" fill="#ffd240" d="M 1138.5,388.5 C 1138.5,409.167 1138.5,429.833 1138.5,450.5C 1118.33,450.83 1098.33,450.497 1078.5,449.5C 1098.17,449.5 1117.83,449.5 1137.5,449.5C 1137.17,428.993 1137.5,408.66 1138.5,388.5 Z"/></g>
<g><path style="opacity:1" fill="#333245" d="M 1052.5,620.5 C 1051.66,620.842 1051.33,621.508 1051.5,622.5C 1048.65,632.23 1045.65,641.896 1042.5,651.5C 1027.46,650.85 1012.8,651.517 998.5,653.5C 995.825,671.215 992.825,688.881 989.5,706.5C 991.103,709.28 992.937,711.946 995,714.5C 996.411,716.65 997.245,718.984 997.5,721.5C 997.5,723.833 997.5,726.167 997.5,728.5C 975.167,728.5 952.833,728.5 930.5,728.5C 930.433,718.798 934.433,711.298 942.5,706C 938.477,697.454 934.311,688.954 930,680.5C 907.907,670.538 885.741,660.705 863.5,651C 862.305,643.299 860.638,635.799 858.5,628.5C 858.495,624.466 858.162,620.466 857.5,616.5C 851.96,615.793 848.96,612.626 848.5,607C 850.792,599.022 855.792,596.689 863.5,600C 869.277,606.623 868.277,612.123 860.5,616.5C 859.642,620.33 859.976,623.997 861.5,627.5C 862.616,634.863 863.95,642.196 865.5,649.5C 887.618,659.059 909.618,668.892 931.5,679C 936.143,687.787 940.643,696.62 945,705.5C 945.75,704.874 946.584,704.374 947.5,704C 958.5,703.333 969.5,703.333 980.5,704C 982.615,704.557 984.615,705.391 986.5,706.5C 990.876,688.048 994.376,669.381 997,650.5C 1011.76,649.509 1026.59,649.176 1041.5,649.5C 1043.77,640.366 1046.43,631.366 1049.5,622.5C 1052.1,613.045 1055.1,603.711 1058.5,594.5C 1052.37,592.214 1049.87,587.88 1051,581.5C 1055.88,574.375 1061.54,573.709 1068,579.5C 1070.91,587.349 1068.24,592.349 1060,594.5C 1057.19,603.097 1054.69,611.764 1052.5,620.5 Z"/></g>
<g><path style="opacity:1" fill="#36323f" d="M 1251.5,578.5 C 1257.03,577.069 1260.36,579.069 1261.5,584.5C 1259.14,591.769 1254.98,593.102 1249,588.5C 1247.86,584.537 1248.7,581.204 1251.5,578.5 Z"/></g>
<g><path style="opacity:1" fill="#bcbd9b" d="M 1052.5,620.5 C 1054.26,621.461 1056.26,621.795 1058.5,621.5C 1056.39,622.468 1054.06,622.802 1051.5,622.5C 1051.33,621.508 1051.66,620.842 1052.5,620.5 Z"/></g>
<g><path style="opacity:1" fill="#b1d3f9" d="M 1049.5,622.5 C 1046.43,631.366 1043.77,640.366 1041.5,649.5C 1026.59,649.176 1011.76,649.509 997,650.5C 994.376,669.381 990.876,688.048 986.5,706.5C 984.615,705.391 982.615,704.557 980.5,704C 969.5,703.333 958.5,703.333 947.5,704C 946.584,704.374 945.75,704.874 945,705.5C 940.643,696.62 936.143,687.787 931.5,679C 909.618,668.892 887.618,659.059 865.5,649.5C 863.95,642.196 862.616,634.863 861.5,627.5C 924.163,625.685 986.83,624.019 1049.5,622.5 Z"/></g>
<g><path style="opacity:1" fill="#6f809d" d="M 1042.5,651.5 C 1027.93,652.182 1013.26,652.849 998.5,653.5C 1012.8,651.517 1027.46,650.85 1042.5,651.5 Z"/></g>
<g><path style="opacity:1" fill="#575d71" d="M 997.5,721.5 C 998.473,723.948 998.806,726.615 998.5,729.5C 975.833,729.5 953.167,729.5 930.5,729.5C 930.5,729.167 930.5,728.833 930.5,728.5C 952.833,728.5 975.167,728.5 997.5,728.5C 997.5,726.167 997.5,723.833 997.5,721.5 Z"/></g>
<g><path style="opacity:1" fill="#252433" d="M 780.5,729.5 C 780.5,811.833 780.5,894.167 780.5,976.5C 777.167,976.5 773.833,976.5 770.5,976.5C 762.633,956.071 754.467,935.737 746,915.5C 733.844,881.899 733.511,848.233 745,814.5C 748.248,786.824 748.081,759.157 744.5,731.5C 743.5,731.5 742.5,731.5 741.5,731.5C 746.985,762.184 746.818,792.851 741,823.5C 734.862,841.333 732.862,859.666 735,878.5C 735.732,888.761 737.732,898.761 741,908.5C 750.167,930.833 759.333,953.167 768.5,975.5C 763.544,976.494 758.544,976.827 753.5,976.5C 752.447,943.062 739.113,915.729 713.5,894.5C 719.64,902.237 726.14,910.237 733,918.5C 745.683,935.718 751.85,955.051 751.5,976.5C 749.833,976.5 748.167,976.5 746.5,976.5C 734.5,976.5 722.5,976.5 710.5,976.5C 710.5,894.167 710.5,811.833 710.5,729.5C 733.833,729.5 757.167,729.5 780.5,729.5 Z"/></g>
<g><path style="opacity:1" fill="#cbe2fb" d="M 780.5,729.5 C 830.5,729.5 880.5,729.5 930.5,729.5C 953.167,729.5 975.833,729.5 998.5,729.5C 1064.17,729.5 1129.83,729.5 1195.5,729.5C 1195.5,811.833 1195.5,894.167 1195.5,976.5C 1187.83,976.5 1180.17,976.5 1172.5,976.5C 1163.5,976.5 1154.5,976.5 1145.5,976.5C 1139.17,976.5 1132.83,976.5 1126.5,976.5C 1118.83,976.5 1111.17,976.5 1103.5,976.5C 1007.5,976.5 911.5,976.5 815.5,976.5C 806.5,976.5 797.5,976.5 788.5,976.5C 785.833,976.5 783.167,976.5 780.5,976.5C 780.5,894.167 780.5,811.833 780.5,729.5 Z"/></g>
<g><path style="opacity:1" fill="#2e2d40" d="M 770.5,976.5 C 767.989,986.905 766.323,997.571 765.5,1008.5C 760.833,1008.5 756.167,1008.5 751.5,1008.5C 750.26,997.73 748.593,987.063 746.5,976.5C 748.167,976.5 749.833,976.5 751.5,976.5C 751.85,955.051 745.683,935.718 733,918.5C 726.14,910.237 719.64,902.237 713.5,894.5C 739.113,915.729 752.447,943.062 753.5,976.5C 758.544,976.827 763.544,976.494 768.5,975.5C 759.333,953.167 750.167,930.833 741,908.5C 737.732,898.761 735.732,888.761 735,878.5C 732.862,859.666 734.862,841.333 741,823.5C 746.818,792.851 746.985,762.184 741.5,731.5C 742.5,731.5 743.5,731.5 744.5,731.5C 748.081,759.157 748.248,786.824 745,814.5C 733.511,848.233 733.844,881.899 746,915.5C 754.467,935.737 762.633,956.071 770.5,976.5 Z"/></g>
<g><path style="opacity:1" fill="#9ac7f9" d="M 818.5,754.5 C 910.834,754.333 1003.17,754.5 1095.5,755C 1104.21,757.713 1109.38,763.546 1111,772.5C 1117,826.168 1117,879.835 1111,933.5C 1109.9,943.931 1104.4,950.765 1094.5,954C 1002.83,954.667 911.167,954.667 819.5,954C 814.974,952.141 811.808,948.974 810,944.5C 796.067,884.171 796.067,823.837 810,763.5C 811.688,759.315 814.521,756.315 818.5,754.5 Z"/></g>
<g><path style="opacity:1" fill="#313043" d="M 1145.5,759.5 C 1152.56,758.523 1158.9,760.189 1164.5,764.5C 1159.46,769.537 1154.79,774.871 1150.5,780.5C 1150.83,780.833 1151.17,781.167 1151.5,781.5C 1156.73,776.694 1161.73,771.694 1166.5,766.5C 1174.56,776.843 1174.23,787.01 1165.5,797C 1149.71,806.596 1137.88,803.096 1130,786.5C 1128.27,773.427 1133.43,764.427 1145.5,759.5 Z"/></g>
<g><path style="opacity:1" fill="#0a73f2" d="M 492.5,813.5 C 493.625,812.348 493.625,811.348 492.5,810.5C 487.101,798.525 489.768,788.691 500.5,781C 502.588,779.97 504.755,779.137 507,778.5C 510.16,781.807 511.66,785.807 511.5,790.5C 510.516,804.056 504.183,811.723 492.5,813.5 Z"/></g>
<g><path style="opacity:1" fill="#0c73f2" d="M 473.5,813.5 C 471.099,814.539 468.765,815.873 466.5,817.5C 465.304,817.154 465.304,816.654 466.5,816C 450.911,810.654 445.577,800.154 450.5,784.5C 460.392,784.841 467.226,789.841 471,799.5C 470.886,804.606 471.72,809.273 473.5,813.5 Z"/></g>
<g><path style="opacity:1" fill="#303044" d="M 1017.5,793.5 C 1018.22,793.918 1018.72,794.584 1019,795.5C 1020.75,807.906 1022.92,820.239 1025.5,832.5C 1031.78,834.973 1037.78,837.973 1043.5,841.5C 1048.85,836.315 1054.35,831.315 1060,826.5C 1057.58,832.029 1055.08,837.696 1052.5,843.5C 1056.74,850.419 1061.41,857.085 1066.5,863.5C 1063.05,869.667 1059.89,876 1057,882.5C 1057.66,877.551 1057.99,872.551 1058,867.5C 1054.31,864.309 1050.48,861.309 1046.5,858.5C 1041.5,863.167 1036.5,867.833 1031.5,872.5C 1029.78,869.58 1027.44,867.747 1024.5,867C 1022.54,869.748 1020.71,872.582 1019,875.5C 1017.9,884.463 1017.24,893.463 1017,902.5C 1015.62,896.584 1014.79,890.584 1014.5,884.5C 1008.87,885.521 1003.2,885.687 997.5,885C 991.312,881.142 986.145,876.308 982,870.5C 974.184,872.747 966.351,874.58 958.5,876C 966.04,871.632 973.707,867.466 981.5,863.5C 984.042,854.208 987.375,845.208 991.5,836.5C 986.727,834.074 981.894,831.741 977,829.5C 975.86,819.082 974.527,808.749 973,798.5C 975.331,807.491 978.498,816.157 982.5,824.5C 987.954,826.727 993.287,829.227 998.5,832C 1004.52,832.332 1010.52,831.999 1016.5,831C 1017.49,818.58 1017.82,806.08 1017.5,793.5 Z"/></g>
<g><path style="opacity:1" fill="#0772f2" d="M 513.5,832.5 C 513.5,830.833 513.5,829.167 513.5,827.5C 517.313,814.544 525.979,809.044 539.5,811C 541.997,811.412 543.997,812.578 545.5,814.5C 540.126,829.855 529.459,835.855 513.5,832.5 Z"/></g>
<g><path style="opacity:1" fill="#5fa2f6" d="M 492.5,810.5 C 493.625,811.348 493.625,812.348 492.5,813.5C 486.188,812.266 479.854,812.266 473.5,813.5C 475.562,812.224 477.896,811.39 480.5,811C 484.697,810.89 488.697,810.724 492.5,810.5 Z"/></g>
<g><path style="opacity:1" fill="#313043" d="M 1145.5,816.5 C 1164.36,815.862 1173.2,824.862 1172,843.5C 1170.95,846.154 1169.45,848.488 1167.5,850.5C 1162.17,846.167 1156.83,841.833 1151.5,837.5C 1151.17,837.833 1150.83,838.167 1150.5,838.5C 1155.5,843.167 1160.5,847.833 1165.5,852.5C 1155.49,861.751 1145.32,861.751 1135,852.5C 1125.47,836.582 1128.97,824.582 1145.5,816.5 Z"/></g>
<g><path style="opacity:1" fill="#0a72f2" d="M 506.5,821.5 C 505.596,822.209 505.263,823.209 505.5,824.5C 504.009,832.655 499.342,837.989 491.5,840.5C 490.833,840.833 490.167,841.167 489.5,841.5C 470.755,842.077 468.422,835.91 482.5,823C 484.888,821.139 487.554,819.806 490.5,819C 494.887,818.774 499.221,818.274 503.5,817.5C 504.524,818.852 505.524,820.185 506.5,821.5 Z"/></g>
<g><path style="opacity:1" fill="#4994f5" d="M 506.5,821.5 C 509.324,823.8 511.157,826.8 512,830.5C 512.232,829.263 512.732,828.263 513.5,827.5C 513.5,829.167 513.5,830.833 513.5,832.5C 513.062,832.435 512.728,832.601 512.5,833C 514.23,837.75 515.396,842.584 516,847.5C 513.397,841.357 511.397,835.023 510,828.5C 509.252,826.668 508.252,825.001 507,823.5C 506.617,824.056 506.117,824.389 505.5,824.5C 505.263,823.209 505.596,822.209 506.5,821.5 Z"/></g>
<g><path style="opacity:1" fill="#0972f2" d="M 445.5,825.5 C 449.767,825.203 453.934,825.536 458,826.5C 458.479,837.056 453.645,844.223 443.5,848C 438.64,848.968 433.974,848.468 429.5,846.5C 429.312,843.115 430.146,839.782 432,836.5C 435.842,831.805 440.342,828.139 445.5,825.5 Z"/></g>
<g><path style="opacity:1" fill="#0973f2" d="M 578.5,860.5 C 568.113,848.834 569.446,838.834 582.5,830.5C 586.921,833.677 588.921,838.01 588.5,843.5C 588.72,849.008 587.053,853.842 583.5,858C 587.951,858.13 592.284,858.796 596.5,860C 590.513,859.172 584.513,859.339 578.5,860.5 Z"/></g>
<g><path style="opacity:1" fill="#094793" d="M 491.5,840.5 C 495.112,846.737 497.946,853.403 500,860.5C 501.409,866.354 500.243,871.521 496.5,876C 497.167,876.333 497.833,876.667 498.5,877C 493.545,876.838 488.545,876.505 483.5,876C 485.256,875.798 486.922,875.298 488.5,874.5C 479.079,863.147 479.412,852.147 489.5,841.5C 490.167,841.167 490.833,840.833 491.5,840.5 Z"/></g>
<g><path style="opacity:1" fill="#0a73f2" d="M 539.5,871.5 C 536.529,868.192 533.529,864.859 530.5,861.5C 532.371,861.859 533.871,862.859 535,864.5C 536.576,848.422 545.409,840.755 561.5,841.5C 562.952,851.649 559.619,859.816 551.5,866C 547.148,867.55 543.148,869.383 539.5,871.5 Z"/></g>
<g><path style="opacity:1" fill="#0a73f2" d="M 609.5,877.5 C 607.877,875.122 606.543,872.455 605.5,869.5C 605.846,868.304 606.346,868.304 607,869.5C 612.462,857.685 621.295,854.019 633.5,858.5C 634.512,860.837 634.345,863.17 633,865.5C 627.645,874.328 619.979,876.994 610,873.5C 609.5,873.667 609,873.833 608.5,874C 609.337,875.011 609.67,876.178 609.5,877.5 Z"/></g>
<g><path style="opacity:1" fill="#0d73f2" d="M 530.5,861.5 C 532.318,877.814 524.985,887.148 508.5,889.5C 508.784,887.585 508.451,885.919 507.5,884.5C 508.369,882.283 508.702,879.95 508.5,877.5C 511.254,867.322 516.92,860.489 525.5,857C 527.618,858.049 529.284,859.549 530.5,861.5 Z"/></g>
<g><path style="opacity:1" fill="#4992f5" d="M 578.5,860.5 C 577.426,861.885 576.093,863.051 574.5,864C 573.833,864.667 573.167,864.667 572.5,864C 574.063,862.053 576.063,860.886 578.5,860.5 Z"/></g>
<g><path style="opacity:1" fill="#0c73f2" d="M 655.5,883.5 C 656.822,883.33 657.989,883.663 659,884.5C 663.649,869.593 672.815,865.259 686.5,871.5C 683.556,883.891 675.723,889.558 663,888.5C 660.727,886.372 658.227,884.705 655.5,883.5 Z"/></g>
<g><path style="opacity:1" fill="#4491f4" d="M 567.5,868.5 C 568.043,868.56 568.376,868.893 568.5,869.5C 563.886,875.949 563.552,875.616 567.5,868.5 Z"/></g>
<g><path style="opacity:1" fill="#559df5" d="M 582.5,882.5 C 580.651,875.756 581.818,869.422 586,863.5C 583.75,869.526 582.584,875.859 582.5,882.5 Z"/></g>
<g><path style="opacity:1" fill="#3c8df4" d="M 609.5,877.5 C 611.008,879.181 612.008,881.181 612.5,883.5C 610.461,882.089 609.461,880.089 609.5,877.5 Z"/></g>
<g><path style="opacity:1" fill="#5289cb" d="M 508.5,877.5 C 508.702,879.95 508.369,882.283 507.5,884.5C 505.704,883.207 504.037,881.707 502.5,880C 504.387,879.837 505.887,880.671 507,882.5C 507.198,880.618 507.698,878.952 508.5,877.5 Z"/></g>
<g><path style="opacity:1" fill="#3088f3" d="M 655.5,883.5 C 650.797,883.437 646.13,883.771 641.5,884.5C 644.017,883.027 646.85,882.36 650,882.5C 652.033,882.506 653.866,882.839 655.5,883.5 Z"/></g>
<g><path style="opacity:1" fill="#1375f2" d="M 612.5,883.5 C 615.783,886.806 619.783,888.473 624.5,888.5C 630.267,887.577 635.934,886.244 641.5,884.5C 640.026,885.675 638.36,886.675 636.5,887.5C 646.769,890.292 651.769,896.792 651.5,907C 637.105,910.133 628.771,904.299 626.5,889.5C 622.208,889.965 618.208,889.132 614.5,887C 613.177,886.184 612.511,885.017 612.5,883.5 Z"/></g>
<g><path style="opacity:1" fill="#363547" d="M 1138.5,877.5 C 1145.2,877.404 1152.2,877.571 1159.5,878C 1148.61,888.371 1138.61,898.871 1129.5,909.5C 1132.48,907.016 1135.32,904.35 1138,901.5C 1139.42,903.638 1141.25,904.805 1143.5,905C 1141.36,903.578 1140.2,901.745 1140,899.5C 1147.17,893 1154,886.167 1160.5,879C 1162.42,879.027 1164.08,879.861 1165.5,881.5C 1165.83,881.333 1166.17,881.167 1166.5,881C 1165.5,880 1164.5,879 1163.5,878C 1168.83,877.333 1174.17,877.333 1179.5,878C 1177.67,879.113 1176.84,880.613 1177,882.5C 1178.37,880.959 1179.87,879.625 1181.5,878.5C 1180.59,906.704 1180.42,934.704 1181,962.5C 1161.24,963.061 1141.08,963.395 1120.5,963.5C 1120.33,951.495 1120.5,939.495 1121,927.5C 1122.13,929.141 1123.63,930.141 1125.5,930.5C 1124.21,928.704 1122.71,927.037 1121,925.5C 1120.66,909.328 1120.49,892.994 1120.5,876.5C 1126.59,876.211 1132.59,876.545 1138.5,877.5 Z"/></g>
<g><path style="opacity:1" fill="#6e6f7e" d="M 1181.5,878.5 C 1179.87,879.625 1178.37,880.959 1177,882.5C 1176.84,880.613 1177.67,879.113 1179.5,878C 1174.17,877.333 1168.83,877.333 1163.5,878C 1164.5,879 1165.5,880 1166.5,881C 1166.17,881.167 1165.83,881.333 1165.5,881.5C 1164.08,879.861 1162.42,879.027 1160.5,879C 1154,886.167 1147.17,893 1140,899.5C 1140.2,901.745 1141.36,903.578 1143.5,905C 1141.25,904.805 1139.42,903.638 1138,901.5C 1135.32,904.35 1132.48,907.016 1129.5,909.5C 1138.61,898.871 1148.61,888.371 1159.5,878C 1152.2,877.571 1145.2,877.404 1138.5,877.5C 1152.33,876.339 1166.33,876.173 1180.5,877C 1181.06,877.383 1181.39,877.883 1181.5,878.5 Z"/></g>
<g><path style="opacity:1" fill="#3b8ef4" d="M 539.5,871.5 C 540.79,872.058 541.623,873.058 542,874.5C 545.524,884.062 546.357,893.728 544.5,903.5C 544.167,902.833 543.833,902.167 543.5,901.5C 545.45,891.206 544.117,881.206 539.5,871.5 Z"/></g>
<g><path style="opacity:1" fill="#4693f4" d="M 562.5,905.5 C 561.89,906.391 561.557,907.391 561.5,908.5C 562.435,911.113 562.602,913.779 562,916.5C 559.738,905.935 559.072,895.268 560,884.5C 560.803,881.756 561.803,879.089 563,876.5C 563.167,877 563.333,877.5 563.5,878C 560.179,887.243 559.845,896.409 562.5,905.5 Z"/></g>
<g><path style="opacity:1" fill="#054693" d="M 467.5,911.5 C 467.806,914.385 467.473,917.052 466.5,919.5C 466.334,910.827 466.5,902.16 467,893.5C 468.217,890.006 469.717,886.673 471.5,883.5C 460.667,883.837 451.5,880.17 444,872.5C 441.289,868.532 439.456,864.198 438.5,859.5C 446.668,858.95 454.668,859.783 462.5,862C 470.089,865.421 474.422,871.254 475.5,879.5C 477.487,877.499 479.82,876.665 482.5,877C 472.785,881.377 467.952,888.877 468,899.5C 478.768,891.217 489.268,891.55 499.5,900.5C 493.756,910.251 485.422,913.418 474.5,910C 472.04,908.542 469.873,906.709 468,904.5C 467.503,906.81 467.337,909.143 467.5,911.5 Z"/></g>
<g><path style="opacity:1" fill="#0a72f1" d="M 543.5,901.5 C 543.833,902.167 544.167,902.833 544.5,903.5C 537.48,909.912 529.147,912.246 519.5,910.5C 519.167,910.5 518.833,910.5 518.5,910.5C 514.387,908.939 510.72,906.606 507.5,903.5C 510.606,900.569 513.106,897.236 515,893.5C 515.388,894.428 516.055,895.095 517,895.5C 527.09,891.963 535.924,893.963 543.5,901.5 Z"/></g>
<g><path style="opacity:1" fill="#0b73f2" d="M 594.5,901.5 C 592.629,901.141 591.129,900.141 590,898.5C 584.135,912.288 574.635,915.621 561.5,908.5C 561.557,907.391 561.89,906.391 562.5,905.5C 567.678,896.079 575.678,892.246 586.5,894C 584.07,890.544 582.737,886.71 582.5,882.5C 584.933,883.329 587.267,882.829 589.5,881C 597.933,879.146 605.1,881.312 611,887.5C 611.982,888.759 612.315,890.092 612,891.5C 607.032,897.115 600.865,898.948 593.5,897C 591.945,895.711 590.279,895.044 588.5,895C 590.706,897.037 592.706,899.203 594.5,901.5 Z"/></g>
<g><path style="opacity:1" fill="#807f8a" d="M 1166.5,891.5 C 1167.53,891.897 1167.69,892.563 1167,893.5C 1165.31,895.017 1163.81,896.684 1162.5,898.5C 1166.32,903.181 1165.82,903.514 1161,899.5C 1157.67,902.833 1154.33,906.167 1151,909.5C 1150.33,908.833 1150.33,908.167 1151,907.5C 1154.02,904.651 1156.85,901.651 1159.5,898.5C 1157.02,895.147 1157.52,894.814 1161,897.5C 1163.04,895.63 1164.87,893.63 1166.5,891.5 Z"/></g>
<g><path style="opacity:1" fill="#5099f5" d="M 594.5,901.5 C 597.089,902.419 599.089,904.086 600.5,906.5C 599.817,908.176 598.483,908.843 596.5,908.5C 597.263,907.732 598.263,907.232 599.5,907C 597.627,905.296 595.96,903.463 594.5,901.5 Z"/></g>
<g><path style="opacity:1" fill="#074793" d="M 465.5,920.5 C 465.5,920.833 465.5,921.167 465.5,921.5C 452.708,928.114 441.041,926.614 430.5,917C 439.286,908.877 448.952,907.543 459.5,913C 462.118,915.106 464.118,917.606 465.5,920.5 Z"/></g>
<g><path style="opacity:1" fill="#1274f1" d="M 600.5,906.5 C 604.612,911.052 607.445,916.385 609,922.5C 614.757,913.465 622.924,910.298 633.5,913C 634.91,913.368 635.91,914.201 636.5,915.5C 632.02,929.494 623.187,933.494 610,927.5C 610.467,930.563 611.134,933.563 612,936.5C 609.921,933.676 608.421,930.676 607.5,927.5C 607.5,927.167 607.5,926.833 607.5,926.5C 606.987,922.771 606.154,919.104 605,915.5C 603.072,919.118 601.238,922.784 599.5,926.5C 595.494,930.838 590.494,932.838 584.5,932.5C 584.007,930.194 583.674,927.861 583.5,925.5C 583.641,916.686 587.974,911.019 596.5,908.5C 598.483,908.843 599.817,908.176 600.5,906.5 Z"/></g>
<g><path style="opacity:1" fill="#a1c3ed" d="M 607.5,926.5 C 604.833,926.5 602.167,926.5 599.5,926.5C 601.238,922.784 603.072,919.118 605,915.5C 606.154,919.104 606.987,922.771 607.5,926.5 Z"/></g>
<g><path style="opacity:1" fill="#807f8a" d="M 1173.5,906.5 C 1174.65,907.313 1174.65,908.313 1173.5,909.5C 1168.83,913.5 1164.5,917.833 1160.5,922.5C 1157.54,920.373 1157.87,919.206 1161.5,919C 1165.7,914.964 1169.7,910.798 1173.5,906.5 Z"/></g>
<g><path style="opacity:1" fill="#3c72b3" d="M 467.5,911.5 C 468.833,917.5 468.833,923.5 467.5,929.5C 467.167,929.5 466.833,929.5 466.5,929.5C 466.806,926.615 466.473,923.948 465.5,921.5C 465.5,921.167 465.5,920.833 465.5,920.5C 466.167,920.5 466.5,920.167 466.5,919.5C 467.473,917.052 467.806,914.385 467.5,911.5 Z"/></g>
<g><path style="opacity:1" fill="#7188ab" d="M 518.5,910.5 C 518.833,910.5 519.167,910.5 519.5,910.5C 519.5,915.167 519.5,919.833 519.5,924.5C 525.026,924.179 530.36,924.512 535.5,925.5C 525.442,924.86 515.775,925.527 506.5,927.5C 505.596,926.791 505.263,925.791 505.5,924.5C 509.833,924.5 514.167,924.5 518.5,924.5C 518.5,919.833 518.5,915.167 518.5,910.5 Z"/></g>
<g><path style="opacity:1" fill="#2f2e41" d="M 535.5,925.5 C 551.5,925.5 567.5,925.5 583.5,925.5C 583.674,927.861 584.007,930.194 584.5,932.5C 590.494,932.838 595.494,930.838 599.5,926.5C 602.167,926.5 604.833,926.5 607.5,926.5C 607.5,926.833 607.5,927.167 607.5,927.5C 604.915,951.18 602.248,974.847 599.5,998.5C 604.695,998.179 609.695,998.513 614.5,999.5C 578.165,998.192 541.832,998.192 505.5,999.5C 508.722,998.498 512.722,998.165 517.5,998.5C 514.156,974.772 510.49,951.105 506.5,927.5C 515.775,925.527 525.442,924.86 535.5,925.5 Z"/></g>
<g><path style="opacity:1" fill="#73727e" d="M 1142.5,925.5 C 1141.21,924.71 1140.04,923.71 1139,922.5C 1134,927.5 1129,932.5 1124,937.5C 1123.84,935.613 1124.67,934.113 1126.5,933C 1125.75,932.329 1125.41,931.496 1125.5,930.5C 1126.42,931.303 1127.42,931.47 1128.5,931C 1131.33,928.167 1134.17,925.333 1137,922.5C 1137.51,921.004 1137.01,919.837 1135.5,919C 1135.83,918.833 1136.17,918.667 1136.5,918.5C 1138.04,919.747 1139.54,919.747 1141,918.5C 1141.49,919.549 1141.33,920.549 1140.5,921.5C 1141.63,922.622 1142.3,923.956 1142.5,925.5 Z"/></g>
<g><path style="opacity:1" fill="#0b4894" d="M 466.5,929.5 C 466.833,929.5 467.167,929.5 467.5,929.5C 467.281,930.675 467.614,931.675 468.5,932.5C 475.188,929.992 481.521,930.826 487.5,935C 495.099,941.032 499.432,948.865 500.5,958.5C 483.396,958.909 472.23,950.909 467,934.5C 463.975,946.11 456.475,952.777 444.5,954.5C 444.5,954.167 444.5,953.833 444.5,953.5C 431.634,949.588 421.634,941.254 414.5,928.5C 434.084,923.889 445.918,931.556 450,951.5C 460.086,947.682 465.586,940.349 466.5,929.5 Z"/></g>
<g><path style="opacity:1" fill="#85848f" d="M 1142.5,925.5 C 1148.24,929.735 1153.57,934.568 1158.5,940C 1157.83,940.667 1157.17,940.667 1156.5,940C 1154.23,937.218 1151.56,935.051 1148.5,933.5C 1146.91,930.569 1144.91,927.902 1142.5,925.5 Z"/></g>
<g><path style="opacity:1" fill="#81808b" d="M 1148.5,933.5 C 1146.61,936.899 1144.11,939.899 1141,942.5C 1142.45,938.857 1144.95,935.857 1148.5,933.5 Z"/></g>
<g><path style="opacity:1" fill="#0772f2" d="M 617.5,940.5 C 631.291,942.729 636.624,950.729 633.5,964.5C 622.532,965.378 616.532,960.212 615.5,949C 615.481,945.97 616.147,943.137 617.5,940.5 Z"/></g>
<g><path style="opacity:1" fill="#81808b" d="M 1159.5,941.5 C 1163,943.084 1163,944.251 1159.5,945C 1155.64,948.86 1151.81,952.694 1148,956.5C 1147.33,955.167 1147.33,953.833 1148,952.5C 1148.33,952.833 1148.67,953.167 1149,953.5C 1153.1,949.905 1156.6,945.905 1159.5,941.5 Z"/></g>
<g><path style="opacity:1" fill="#074693" d="M 444.5,956.5 C 457.09,965.604 461.09,977.604 456.5,992.5C 446.565,986.913 440.565,978.58 438.5,967.5C 438.653,964.2 439.653,961.2 441.5,958.5C 442.5,957.833 443.5,957.167 444.5,956.5 Z"/></g>
<g><path style="opacity:1" fill="#4c7ebc" d="M 444.5,953.5 C 444.5,953.833 444.5,954.167 444.5,954.5C 444.5,955.167 444.5,955.833 444.5,956.5C 443.5,957.167 442.5,957.833 441.5,958.5C 441.103,957.475 440.437,957.308 439.5,958C 431.309,964.549 427.642,973.049 428.5,983.5C 428.672,984.492 428.338,985.158 427.5,985.5C 425.771,970.959 431.438,960.293 444.5,953.5 Z"/></g>
<g><path style="opacity:1" fill="#595f75" d="M 788.5,976.5 C 797.5,976.5 806.5,976.5 815.5,976.5C 815.5,976.833 815.5,977.167 815.5,977.5C 806.435,976.864 797.769,977.53 789.5,979.5C 788.596,978.791 788.263,977.791 788.5,976.5 Z"/></g>
<g><path style="opacity:1" fill="#575d73" d="M 1145.5,976.5 C 1154.5,976.5 1163.5,976.5 1172.5,976.5C 1172.74,977.791 1172.4,978.791 1171.5,979.5C 1167.72,978.175 1163.56,977.509 1159,977.5C 1154.44,977.509 1150.28,978.175 1146.5,979.5C 1145.6,978.791 1145.26,977.791 1145.5,976.5 Z"/></g>
<g><path style="opacity:1" fill="#afd1f7" d="M 770.5,976.5 C 773.833,976.5 777.167,976.5 780.5,976.5C 783.167,976.5 785.833,976.5 788.5,976.5C 788.263,977.791 788.596,978.791 789.5,979.5C 791.24,989.162 792.906,998.829 794.5,1008.5C 784.833,1008.5 775.167,1008.5 765.5,1008.5C 766.323,997.571 767.989,986.905 770.5,976.5 Z"/></g>
<g><path style="opacity:1" fill="#302f43" d="M 815.5,977.5 C 813.007,987.804 810.674,998.137 808.5,1008.5C 803.833,1008.5 799.167,1008.5 794.5,1008.5C 792.906,998.829 791.24,989.162 789.5,979.5C 797.769,977.53 806.435,976.864 815.5,977.5 Z"/></g>
<g><path style="opacity:1" fill="#b2d3fa" d="M 815.5,976.5 C 911.5,976.5 1007.5,976.5 1103.5,976.5C 1105.35,987.134 1107.02,997.8 1108.5,1008.5C 1008.5,1008.5 908.5,1008.5 808.5,1008.5C 810.674,998.137 813.007,987.804 815.5,977.5C 815.5,977.167 815.5,976.833 815.5,976.5 Z"/></g>
<g><path style="opacity:1" fill="#313044" d="M 1103.5,976.5 C 1111.17,976.5 1118.83,976.5 1126.5,976.5C 1124.95,987.13 1123.62,997.797 1122.5,1008.5C 1117.83,1008.5 1113.17,1008.5 1108.5,1008.5C 1107.02,997.8 1105.35,987.134 1103.5,976.5 Z"/></g>
<g><path style="opacity:1" fill="#b0d1f8" d="M 1126.5,976.5 C 1132.83,976.5 1139.17,976.5 1145.5,976.5C 1145.26,977.791 1145.6,978.791 1146.5,979.5C 1148.38,989.091 1149.71,998.758 1150.5,1008.5C 1141.17,1008.5 1131.83,1008.5 1122.5,1008.5C 1123.62,997.797 1124.95,987.13 1126.5,976.5 Z"/></g>
<g><path style="opacity:1" fill="#2f2f42" d="M 1171.5,979.5 C 1169.32,989.206 1166.99,998.873 1164.5,1008.5C 1159.83,1008.5 1155.17,1008.5 1150.5,1008.5C 1149.71,998.758 1148.38,989.091 1146.5,979.5C 1150.28,978.175 1154.44,977.509 1159,977.5C 1163.56,977.509 1167.72,978.175 1171.5,979.5 Z"/></g>
<g><path style="opacity:1" fill="#034592" d="M 428.5,983.5 C 442.242,992.533 447.075,1005.2 443,1021.5C 442,1024.83 441,1028.17 440,1031.5C 426.813,1023.46 420.813,1011.79 422,996.5C 423.333,992.501 425.166,988.834 427.5,985.5C 428.338,985.158 428.672,984.492 428.5,983.5 Z"/></g>
<g><path style="opacity:1" fill="#262534" d="M 614.5,999.5 C 612.5,1002.5 610.5,1005.5 608.5,1008.5C 576.167,1008.5 543.833,1008.5 511.5,1008.5C 509.526,1005.52 507.526,1002.52 505.5,999.5C 541.832,998.192 578.165,998.192 614.5,999.5 Z"/></g>
<g><path style="opacity:1" fill="#147bf1" d="M 493.5,1009.5 C 499.31,1008.51 505.31,1008.18 511.5,1008.5C 543.833,1008.5 576.167,1008.5 608.5,1008.5C 656.167,1008.5 703.833,1008.5 751.5,1008.5C 756.167,1008.5 760.833,1008.5 765.5,1008.5C 775.167,1008.5 784.833,1008.5 794.5,1008.5C 799.167,1008.5 803.833,1008.5 808.5,1008.5C 908.5,1008.5 1008.5,1008.5 1108.5,1008.5C 1113.17,1008.5 1117.83,1008.5 1122.5,1008.5C 1131.83,1008.5 1141.17,1008.5 1150.5,1008.5C 1155.17,1008.5 1159.83,1008.5 1164.5,1008.5C 1217.17,1008.5 1269.83,1008.5 1322.5,1008.5C 1322.5,1087.5 1322.5,1166.5 1322.5,1245.5C 1310.83,1245.5 1299.17,1245.5 1287.5,1245.5C 1277.17,1245.5 1266.83,1245.5 1256.5,1245.5C 1253.5,1245.5 1250.5,1245.5 1247.5,1245.5C 1236.5,1245.5 1225.5,1245.5 1214.5,1245.5C 1012.17,1245.5 809.833,1245.5 607.5,1245.5C 596.167,1245.5 584.833,1245.5 573.5,1245.5C 570.5,1245.5 567.5,1245.5 564.5,1245.5C 554.167,1245.5 543.833,1245.5 533.5,1245.5C 519.99,1245.83 506.656,1245.5 493.5,1244.5C 769.5,1244.5 1045.5,1244.5 1321.5,1244.5C 1321.5,1166.17 1321.5,1087.83 1321.5,1009.5C 1045.5,1009.5 769.5,1009.5 493.5,1009.5 Z"/></g>
<g><path style="opacity:1" fill="#0070f1" d="M 493.5,1009.5 C 769.5,1009.5 1045.5,1009.5 1321.5,1009.5C 1321.5,1087.83 1321.5,1166.17 1321.5,1244.5C 1045.5,1244.5 769.5,1244.5 493.5,1244.5C 493.5,1166.17 493.5,1087.83 493.5,1009.5 Z"/></g>
<g><path style="opacity:1" fill="#2e2d40" d="M 798.5,1024.5 C 798.5,1093.17 798.5,1161.83 798.5,1230.5C 755.167,1230.5 711.833,1230.5 668.5,1230.5C 668.5,1161.83 668.5,1093.17 668.5,1024.5C 711.833,1024.5 755.167,1024.5 798.5,1024.5 Z"/></g>
<g><path style="opacity:1" fill="#cbe2fb" d="M 1070.5,1023.5 C 1070.5,1092.5 1070.5,1161.5 1070.5,1230.5C 1048.17,1230.5 1025.83,1230.5 1003.5,1230.5C 1003.5,1227.17 1003.5,1223.83 1003.5,1220.5C 992.167,1220.5 980.833,1220.5 969.5,1220.5C 969.5,1217.83 969.5,1215.17 969.5,1212.5C 946.5,1212.5 923.5,1212.5 900.5,1212.5C 900.5,1215.17 900.5,1217.83 900.5,1220.5C 902.833,1220.5 905.167,1220.5 907.5,1220.5C 907.5,1223.83 907.5,1227.17 907.5,1230.5C 897.833,1230.5 888.167,1230.5 878.5,1230.5C 878.5,1177.5 878.5,1124.5 878.5,1071.5C 873.833,1071.5 869.167,1071.5 864.5,1071.5C 864.5,1077.17 864.5,1082.83 864.5,1088.5C 860.167,1088.5 855.833,1088.5 851.5,1088.5C 851.5,1079.17 851.5,1069.83 851.5,1060.5C 842.5,1060.5 833.5,1060.5 824.5,1060.5C 824.5,1048.17 824.5,1035.83 824.5,1023.5C 906.5,1023.5 988.5,1023.5 1070.5,1023.5 Z"/></g>
<g><path style="opacity:1" fill="#5fa2f1" d="M 1070.5,1023.5 C 1071.5,1092.66 1071.83,1162 1071.5,1231.5C 1002.33,1231.83 933.331,1231.5 864.5,1230.5C 869.167,1230.5 873.833,1230.5 878.5,1230.5C 888.167,1230.5 897.833,1230.5 907.5,1230.5C 939.5,1230.5 971.5,1230.5 1003.5,1230.5C 1025.83,1230.5 1048.17,1230.5 1070.5,1230.5C 1070.5,1161.5 1070.5,1092.5 1070.5,1023.5 Z"/></g>
<g><path style="opacity:1" fill="#2e2d41" d="M 1090.5,1023.5 C 1160.83,1023.5 1231.17,1023.5 1301.5,1023.5C 1301.5,1055.83 1301.5,1088.17 1301.5,1120.5C 1231.17,1120.5 1160.83,1120.5 1090.5,1120.5C 1090.5,1088.17 1090.5,1055.83 1090.5,1023.5 Z"/></g>
<g><path style="opacity:1" fill="#1653a2" d="M 1213.5,1046.5 C 1213.5,1044.5 1213.5,1042.5 1213.5,1040.5C 1201.83,1040.5 1190.17,1040.5 1178.5,1040.5C 1178.5,1042.5 1178.5,1044.5 1178.5,1046.5C 1177.53,1044.39 1177.2,1042.06 1177.5,1039.5C 1189.83,1039.5 1202.17,1039.5 1214.5,1039.5C 1214.8,1042.06 1214.47,1044.39 1213.5,1046.5 Z"/></g>
<g><path style="opacity:1" fill="#0170ef" d="M 1213.5,1046.5 C 1211.42,1055.74 1205.59,1060.41 1196,1060.5C 1186.44,1060.44 1180.61,1055.77 1178.5,1046.5C 1178.5,1044.5 1178.5,1042.5 1178.5,1040.5C 1190.17,1040.5 1201.83,1040.5 1213.5,1040.5C 1213.5,1042.5 1213.5,1044.5 1213.5,1046.5 Z"/></g>
<g><path style="opacity:1" fill="#2e2e41" d="M 824.5,1060.5 C 833.5,1060.5 842.5,1060.5 851.5,1060.5C 851.5,1069.83 851.5,1079.17 851.5,1088.5C 851.5,1135.83 851.5,1183.17 851.5,1230.5C 842.5,1230.5 833.5,1230.5 824.5,1230.5C 824.5,1173.83 824.5,1117.17 824.5,1060.5 Z"/></g>
<g><path style="opacity:1" fill="#234070" d="M 798.5,1024.5 C 755.167,1024.5 711.833,1024.5 668.5,1024.5C 668.5,1093.17 668.5,1161.83 668.5,1230.5C 711.833,1230.5 755.167,1230.5 798.5,1230.5C 755.003,1231.5 711.337,1231.83 667.5,1231.5C 667.5,1162.17 667.5,1092.83 667.5,1023.5C 711.337,1023.17 755.003,1023.5 798.5,1024.5 Z"/></g>
<g><path style="opacity:1" fill="#d0d3d4" d="M 878.5,1230.5 C 873.833,1230.5 869.167,1230.5 864.5,1230.5C 864.5,1183.17 864.5,1135.83 864.5,1088.5C 864.5,1082.83 864.5,1077.17 864.5,1071.5C 869.167,1071.5 873.833,1071.5 878.5,1071.5C 878.5,1124.5 878.5,1177.5 878.5,1230.5 Z"/></g>
<g><path style="opacity:1" fill="#224379" d="M 647.5,1230.5 C 604.003,1231.5 560.337,1231.83 516.5,1231.5C 516.5,1162.17 516.5,1092.83 516.5,1023.5C 560.5,1023.5 604.5,1023.5 648.5,1023.5C 648.833,1092.67 648.499,1161.67 647.5,1230.5 Z"/></g>
<g><path style="opacity:1" fill="#2e2d40" d="M 647.5,1230.5 C 604.167,1230.5 560.833,1230.5 517.5,1230.5C 517.5,1161.83 517.5,1093.17 517.5,1024.5C 560.833,1024.5 604.167,1024.5 647.5,1024.5C 647.5,1093.17 647.5,1161.83 647.5,1230.5 Z"/></g>
<g><path style="opacity:1" fill="#016fee" d="M 624.5,1102.5 C 627.167,1102.5 629.833,1102.5 632.5,1102.5C 632.5,1114.5 632.5,1126.5 632.5,1138.5C 622.773,1139.72 616.273,1135.72 613,1126.5C 610.267,1115.14 614.1,1107.14 624.5,1102.5 Z"/></g>
<g><path style="opacity:1" fill="#016fee" d="M 689.5,1103.5 C 699.748,1106.64 703.914,1113.64 702,1124.5C 699.555,1134.65 693.055,1139.32 682.5,1138.5C 682.5,1126.83 682.5,1115.17 682.5,1103.5C 684.833,1103.5 687.167,1103.5 689.5,1103.5 Z"/></g>
<g><path style="opacity:1" fill="#1057af" d="M 689.5,1103.5 C 687.167,1103.5 684.833,1103.5 682.5,1103.5C 682.5,1115.17 682.5,1126.83 682.5,1138.5C 681.505,1126.68 681.172,1114.68 681.5,1102.5C 684.385,1102.19 687.052,1102.53 689.5,1103.5 Z"/></g>
<g><path style="opacity:1" fill="#2e2d41" d="M 1090.5,1134.5 C 1160.83,1134.5 1231.17,1134.5 1301.5,1134.5C 1301.5,1166.83 1301.5,1199.17 1301.5,1231.5C 1231.17,1231.5 1160.83,1231.5 1090.5,1231.5C 1090.5,1199.17 1090.5,1166.83 1090.5,1134.5 Z"/></g>
<g><path style="opacity:1" fill="#0070f0" d="M 1178.5,1148.5 C 1190.17,1148.5 1201.83,1148.5 1213.5,1148.5C 1213.21,1164.28 1205.21,1170.78 1189.5,1168C 1181.05,1164.27 1177.38,1157.77 1178.5,1148.5 Z"/></g>
<g><path style="opacity:1" fill="#333246" d="M 969.5,1220.5 C 948.833,1220.5 928.167,1220.5 907.5,1220.5C 905.167,1220.5 902.833,1220.5 900.5,1220.5C 900.5,1217.83 900.5,1215.17 900.5,1212.5C 923.5,1212.5 946.5,1212.5 969.5,1212.5C 969.5,1215.17 969.5,1217.83 969.5,1220.5 Z"/></g>
<g><path style="opacity:1" fill="#cfd1d3" d="M 907.5,1220.5 C 928.167,1220.5 948.833,1220.5 969.5,1220.5C 980.833,1220.5 992.167,1220.5 1003.5,1220.5C 1003.5,1223.83 1003.5,1227.17 1003.5,1230.5C 971.5,1230.5 939.5,1230.5 907.5,1230.5C 907.5,1227.17 907.5,1223.83 907.5,1220.5 Z"/></g>
<g><path style="opacity:1" fill="#2f2f42" d="M 533.5,1245.5 C 543.833,1245.5 554.167,1245.5 564.5,1245.5C 557.694,1274.39 551.361,1303.39 545.5,1332.5C 544.069,1333.78 543.402,1335.45 543.5,1337.5C 537.5,1337.5 531.5,1337.5 525.5,1337.5C 525.5,1335.83 525.5,1334.17 525.5,1332.5C 528.685,1303.56 531.352,1274.56 533.5,1245.5 Z"/></g>
<g><path style="opacity:1" fill="#aecff6" d="M 564.5,1245.5 C 567.5,1245.5 570.5,1245.5 573.5,1245.5C 571.445,1274.55 568.778,1303.55 565.5,1332.5C 558.833,1332.5 552.167,1332.5 545.5,1332.5C 551.361,1303.39 557.694,1274.39 564.5,1245.5 Z"/></g>
<g><path style="opacity:1" fill="#2f2f42" d="M 573.5,1245.5 C 584.833,1245.5 596.167,1245.5 607.5,1245.5C 600.515,1274.77 593.848,1304.11 587.5,1333.5C 587.461,1334.58 587.127,1335.58 586.5,1336.5C 579.532,1337.5 572.532,1337.83 565.5,1337.5C 565.5,1335.83 565.5,1334.17 565.5,1332.5C 568.778,1303.55 571.445,1274.55 573.5,1245.5 Z"/></g>
<g><path style="opacity:1" fill="#b2d4fa" d="M 607.5,1245.5 C 809.833,1245.5 1012.17,1245.5 1214.5,1245.5C 1221.17,1275.51 1227.83,1305.51 1234.5,1335.5C 1018.83,1334.54 803.168,1333.87 587.5,1333.5C 593.848,1304.11 600.515,1274.77 607.5,1245.5 Z"/></g>
<g><path style="opacity:1" fill="#302f42" d="M 1214.5,1245.5 C 1225.5,1245.5 1236.5,1245.5 1247.5,1245.5C 1250.5,1275.5 1253.5,1305.5 1256.5,1335.5C 1253.4,1336.82 1249.9,1337.49 1246,1337.5C 1242.5,1337.33 1239,1337.17 1235.5,1337C 1234.94,1336.62 1234.61,1336.12 1234.5,1335.5C 1227.83,1305.51 1221.17,1275.51 1214.5,1245.5 Z"/></g>
<g><path style="opacity:1" fill="#afd0f7" d="M 1247.5,1245.5 C 1250.5,1245.5 1253.5,1245.5 1256.5,1245.5C 1263.72,1275.46 1270.72,1305.46 1277.5,1335.5C 1270.5,1335.5 1263.5,1335.5 1256.5,1335.5C 1253.5,1305.5 1250.5,1275.5 1247.5,1245.5 Z"/></g>
<g><path style="opacity:1" fill="#302f42" d="M 1256.5,1245.5 C 1266.83,1245.5 1277.17,1245.5 1287.5,1245.5C 1290.32,1275.47 1293.32,1305.47 1296.5,1335.5C 1293.74,1336.82 1290.58,1337.48 1287,1337.5C 1283.42,1337.48 1280.26,1336.82 1277.5,1335.5C 1270.72,1305.46 1263.72,1275.46 1256.5,1245.5 Z"/></g>
</svg>
